<svg version="1.1" id="Layer_1" xmlns="http://www.w3.org/2000/svg" xmlns:xlink="http://www.w3.org/1999/xlink" x="0px" y="0px"
	 viewBox="0 0 500 118" style="enable-background:new 0 0 500 118;" xml:space="preserve">
<path fill="#FFF" stroke="#000" stroke-linejoin="round" stroke-miterlimit="10" d="M438.2,79.9l-11.5,6.6V20.3l11.5-6.6V79.9z M31.1,13.7l-11.5,6.6v66.2l11.5-6.6V13.7z M65.5,40.1l-11.5,6.6
	V33.5l11.5-6.6V40.1z M88.5,40.1L77,46.8V33.5l11.5-6.6V40.1z M88.5,93.1L77,99.7V60l11.5-6.6V93.1z M122.9,66.6l-11.5,6.6V33.5
	l11.5-6.6V66.6z M145.8,93.1l-11.5,6.6V33.5l11.5-6.6V93.1z M180.2,79.9l-11.5,6.6v-53l11.5-6.6V79.9z M203.1,93.1l-11.5,6.6v-53
	l11.5-6.6V93.1z M226.1,106.3l-11.5,6.6V46.8l11.5-6.6V106.3z M283.4,40.1l-11.5,6.6V33.5l11.5-6.6V40.1z M283.4,66.6l-11.5,6.6V60
	l11.5-6.6V66.6z M283.4,93.1l-11.5,6.6V86.5l11.5-6.6V93.1z M329.2,86.5l-11.5,6.6v-53l11.5-6.6V86.5z M340.7,40.1l-11.5,6.6V33.5
	l11.5-6.6V40.1z M375.1,79.9l-11.5,6.6V60l11.5-6.6V79.9z M403.8,96.4l-11.5,6.6V76.5l11.5-6.6V96.4z M398,66.6l-11.5,6.6V33.5
	l11.5-6.6V66.6z M472.6,26.9l-11.5,6.6v39.7l11.5-6.6V26.9z M495.5,79.9L484,86.5v13.2l11.5-6.6V79.9z M495.5,26.9L484,33.5v13.2
	l11.5-6.6V26.9z"/>
<path fill="#FFF" stroke="#000" stroke-linejoin="round" stroke-miterlimit="10" d="M65.5,79.9L42.6,66.6L54.1,60L77,73.2L65.5,79.9z M88.5,53.4L65.5,40.1l-11.5,6.6L77,60L88.5,53.4z M134.3,73.2
	l-11.5-6.6l-11.5,6.6l11.5,6.6L134.3,73.2z M31.1,13.7L19.7,7L8.2,13.7l11.5,6.6L31.1,13.7z M426.7,20.3l-11.5-6.6L426.7,7l11.5,6.6
	L426.7,20.3z M77,33.5L42.6,13.7L54.1,7l34.4,19.9L77,33.5z M134.3,33.5L99.9,13.7L111.4,7l34.4,19.9L134.3,33.5z M214.6,46.8
	l-57.3-33.1L168.7,7l57.3,33.1L214.6,46.8z M271.9,33.5l-34.4-19.9L249,7l34.4,19.9L271.9,33.5z M329.2,33.5l-34.4-19.9L306.3,7
	l34.4,19.9L329.2,33.5z M386.6,33.5l-34.4-19.9L363.6,7L398,26.9L386.6,33.5z M484,33.5l-34.4-19.9L461.1,7l34.4,19.9L484,33.5z
	 M484,86.5l-22.9-13.2l11.5-6.6l22.9,13.2L484,86.5z M283.4,79.9l-22.9-13.2L249,73.2l22.9,13.2L283.4,79.9z M283.4,53.4l-22.9-13.2
	L249,46.8L271.9,60L283.4,53.4z M386.6,46.8l-11.5-6.6l-11.5,6.6l11.5,6.6L386.6,46.8z M403.8,69.9l-5.7-3.3l-11.5,6.6l5.7,3.3
	L403.8,69.9z"/>
<path fill="#999" stroke="#000" stroke-linejoin="round" stroke-miterlimit="10" d="M19.7,86.5L8.2,79.9V13.7l11.5,6.6V86.5z M426.7,20.3l-11.5-6.6v66.2l11.5,6.6V20.3z M77,46.8V33.5L54.1,20.3
	l-11.5-6.6v13.2v13.2v6.6v6.6l22.9,13.2v13.2L42.6,66.6v13.2l22.9,13.2L77,99.7V86.5V73.2v-6.6V60L54.1,46.8V33.5L77,46.8z
	 M134.3,33.5v13.2v39.7v13.2l-11.5-6.6l-11.5-6.6l-11.5-6.6V66.6V26.9V13.7l11.5,6.6l11.5,6.6L134.3,33.5z M122.9,40.1l-11.5-6.6
	v39.7l11.5,6.6V40.1z M203.1,40.1l-11.5-6.6l-11.5-6.6l-11.5-6.6l-11.5-6.6v13.2v53l11.5,6.6v-53l11.5,6.6v53l11.5,6.6v-53l11.5,6.6
	v53l11.5,6.6V60V46.8L203.1,40.1z M271.9,46.8V33.5L249,20.3l-11.5-6.6v13.2v13.2v13.2v13.2v13.2l11.5,6.6l22.9,13.2V86.5L249,73.2
	V60l22.9,13.2V60L249,46.8V33.5L271.9,46.8z M329.2,33.5l-11.5-6.6l-11.5-6.6l-11.5-6.6v13.2l11.5,6.6v53l11.5,6.6v-53l11.5,6.6
	V33.5z M392.3,76.5V103l-11.5-6.6V69.9L363.6,60v26.5l-11.5-6.6V53.4V40.1V26.9V13.7l11.5,6.6l11.5,6.6l11.5,6.6v13.2V60v6.6v6.6
	L392.3,76.5z M375.1,40.1l-11.5-6.6v13.2l11.5,6.6V40.1z M484,46.8V33.5l-22.9-13.2l-11.5-6.6v13.2v39.7v13.2l11.5,6.6L484,99.7
	V86.5l-22.9-13.2V33.5L484,46.8z"/>
</svg>
