<?xml version="1.0" encoding="utf-8"?>
<!-- Generator: Adobe Illustrator 22.1.0, SVG Export Plug-In . SVG Version: 6.00 Build 0)  -->
<svg version="1.1" id="Layer_1" xmlns="http://www.w3.org/2000/svg" xmlns:xlink="http://www.w3.org/1999/xlink" x="0px" y="0px"
	 viewBox="0 0 333 74" style="enable-background:new 0 0 333 74;" xml:space="preserve">
<style type="text/css">
	.st0{fill:#EEEEEE;}
	.st1{fill:#AAAAAA;}
</style>
<g>
	<polygon class="st0" points="191.8,41 191.8,70.1 217.1,55.5 217.1,26.4 	"/>
</g>
<path class="st1" d="M217.1,26.4l-25.2-14.6l-25.2,14.6l0,0l0,0v29.1l25.2,14.6V41l0,0h0L217.1,26.4z"/>
<path d="M234.7,8.8v11.1h11.8v3h-11.8v23.8c0,4.6,1.4,8.1,6,8.1c2.2,0,3.8-0.3,4.9-0.7L246,57c-1.3,0.5-3.3,1-5.7,1
	c-2.9,0-5.3-0.9-6.9-2.8c-1.9-2.1-2.5-5.5-2.5-9V22.9h-6.8v-3h6.8V9.9L234.7,8.8z M255.6,31.9c0-4-0.1-8-0.3-12h3.5l0.2,8.1h0.2
	c1.9-5.2,5.9-9,11.4-9c0.6,0,1.2,0.1,1.8,0.2v3.5c-0.7-0.2-1.3-0.2-2.2-0.2c-5.2,0-9.1,4.3-10.4,10.8c-0.2,1.1-0.4,2.4-0.4,3.6v20.2
	h-3.8V31.9z M286.2,8.8c0,1.7-1.2,3.3-3.3,3.3c-1.8,0-3-1.6-3-3.3c0-1.7,1.4-3.3,3.2-3.3S286.2,7.1,286.2,8.8z M281.2,57.1V19.8h3.8
	v37.2H281.2z M327.3,55.3c-1.6,0.8-6.1,2.7-12.5,2.7c-11.9,0-19.7-8.2-19.7-19c0-12.4,9.2-20.1,21.2-20.1c5.5,0,9.8,1.6,11.3,2.6
	l-1.4,3.1c-2.2-1.2-5.4-2.5-10.2-2.5c-11.1,0-17.1,7.3-17.1,16.4c0,9.7,7,16.2,16.4,16.2c5.3,0,8.7-1.6,10.9-2.5L327.3,55.3z
	 M6.8,4.8v52.2H3V4.8H6.8z M18.9,52c2.2,1.4,5.6,2.8,9.3,2.8c6.5,0,9.4-3.4,9.4-7.2c0-4.3-2.9-6.4-8.8-8.3
	c-6.7-2.2-10.1-5.7-10.1-10.1c0-5.3,4.2-10.3,12.2-10.3c3.6,0,6.8,1,9,2.5l-1.5,3.1c-1.2-0.9-4-2.4-8.2-2.4c-5.1,0-7.8,3.1-7.8,6.7
	c0,4.2,3.2,5.8,8.7,7.7c6.8,2.3,10.2,5.3,10.2,10.9c0,6-5,10.7-13.4,10.7c-4,0-7.6-1.1-10.4-2.7L18.9,52z M87.7,38
	c0,14-10.9,20-20,20c-11.1,0-19.1-8.1-19.1-19.1c0-12.4,9.3-19.9,19.7-19.9C80.2,18.9,87.7,27.4,87.7,38z M52.4,38.6
	c0,10.4,7.5,16.3,15.6,16.3c8.2,0,16-6,16-16.7c0-7.1-4.7-16.2-15.7-16.2C57.7,22,52.4,29.9,52.4,38.6z M97.9,28.8c0-3-0.1-6-0.3-9
	h3.6l0.3,7.2h0.2c2.7-4.7,6.6-8.1,13.4-8.1c5.9,0,10.1,4.1,11.7,8.8h0.2c1.1-2.2,2.5-4,3.9-5.2c2.7-2.3,5.5-3.6,10.2-3.6
	c3.5,0,13.3,1.9,13.3,17.4v20.8h-3.8V36.4c0-9.4-4-14.2-10.9-14.2c-5.2,0-9.2,3.7-10.9,7.5c-0.4,1-0.8,2.2-0.8,3.6v23.7h-3.8V34.4
	c0-7.3-4-12.2-10.2-12.2c-5.7,0-9.9,4.5-11.5,8.6c-0.4,1-0.7,2.3-0.7,3.6v22.6h-3.8V28.8z"/>
</svg>
